<svg width="111" height="100" viewBox="0 0 111 100" fill="none" xmlns="http://www.w3.org/2000/svg">
<path d="M91.7554 91.6676H84.0973C81.6649 91.6676 79.3321 90.7897 77.6121 89.2269C75.8921 87.6641 74.9258 85.5445 74.9258 83.3343V60.9593C74.9668 60.0818 74.6749 59.2181 74.0989 58.5127C73.523 57.8074 72.6979 57.3031 71.7617 57.0843C71.2171 57.009 70.661 57.0406 70.1309 57.1772C69.6009 57.3138 69.1093 57.5521 68.6893 57.876C68.257 58.2093 67.9099 58.6244 67.6723 59.0921C67.4347 59.5599 67.3123 60.0691 67.3135 60.5843V83.3343C67.3135 85.5445 66.3473 87.6641 64.6273 89.2269C62.9073 90.7897 60.5745 91.6676 58.1421 91.6676H50.4839C48.0515 91.6676 45.7187 90.7897 43.9988 89.2269C42.2788 87.6641 41.3125 85.5445 41.3125 83.3343V60.5843C41.3125 53.4014 44.4529 46.5126 50.0428 41.4335C55.6328 36.3544 63.2143 33.501 71.1197 33.501C79.0251 33.501 86.6066 36.3544 92.1966 41.4335C97.7865 46.5126 100.927 53.4014 100.927 60.5843V83.3343C100.927 85.5445 99.9606 87.6641 98.2406 89.2269C96.5207 90.7897 94.1879 91.6676 91.7554 91.6676ZM71.1197 48.7093C71.8374 48.6681 72.5573 48.6681 73.275 48.7093C76.3537 49.2474 79.1256 50.7533 81.1045 52.9628C83.0834 55.1723 84.143 57.9443 84.0973 60.7926V83.3343H91.7554V60.5843C91.7554 55.6115 89.5813 50.8424 85.7114 47.3261C81.8414 43.8098 76.5926 41.8343 71.1197 41.8343C65.6468 41.8343 60.398 43.8098 56.528 47.3261C52.6581 50.8424 50.4839 55.6115 50.4839 60.5843V83.3343H58.1421V60.5843C58.142 57.4493 59.5064 54.4414 61.9375 52.2167C64.3687 49.9921 67.6694 48.7313 71.1197 48.7093Z" fill="black"/>
<path d="M27.5558 91.6673H18.3843C15.9519 91.6673 13.6191 90.7893 11.8991 89.2265C10.1792 87.6637 9.21289 85.5441 9.21289 83.334V41.6673C9.21289 39.4572 10.1792 37.3376 11.8991 35.7748C13.6191 34.212 15.9519 33.334 18.3843 33.334H27.5558C29.9882 33.334 32.321 34.212 34.041 35.7748C35.761 37.3376 36.7272 39.4572 36.7272 41.6673V83.334C36.7272 85.5441 35.761 87.6637 34.041 89.2265C32.321 90.7893 29.9882 91.6673 27.5558 91.6673ZM18.3843 41.6673V83.334H27.5558V41.6673H18.3843Z" fill="black"/>
<path d="M22.9701 29.166C20.2492 29.166 17.5893 28.4329 15.327 27.0594C13.0646 25.6859 11.3013 23.7336 10.2601 21.4496C9.21885 19.1655 8.94641 16.6522 9.47724 14.2274C10.0081 11.8026 11.3183 9.57534 13.2423 7.82719C15.1663 6.07903 17.6175 4.88852 20.2862 4.40621C22.9548 3.92389 25.7209 4.17143 28.2347 5.11753C30.7485 6.06362 32.8971 7.66578 34.4087 9.72139C35.9204 11.777 36.7272 14.1938 36.7272 16.666C36.7272 19.9812 35.2778 23.1607 32.6978 25.5049C30.1179 27.8491 26.6187 29.166 22.9701 29.166ZM22.9701 12.4994C22.0631 12.4994 21.1765 12.7437 20.4224 13.2016C19.6683 13.6594 19.0805 14.3101 18.7334 15.0715C18.3863 15.8329 18.2955 16.6706 18.4725 17.4789C18.6494 18.2872 19.0861 19.0296 19.7275 19.6123C20.3688 20.195 21.1859 20.5919 22.0754 20.7526C22.965 20.9134 23.887 20.8309 24.7249 20.5155C25.5629 20.2002 26.2791 19.6661 26.783 18.9809C27.2868 18.2957 27.5558 17.4901 27.5558 16.666C27.5558 15.561 27.0726 14.5011 26.2127 13.7197C25.3527 12.9383 24.1863 12.4994 22.9701 12.4994Z" fill="black"/>
</svg>
